<mxfile host="app.diagrams.net" modified="2021-05-17T22:51:29.111Z" agent="5.0 (Windows NT 10.0; Win64; x64) AppleWebKit/537.36 (KHTML, like Gecko) Chrome/90.0.4430.212 Safari/537.36" etag="hppqC4vjBDrV-b_QXyaN" version="14.4.2" type="github">
  <diagram name="Page-1" id="97916047-d0de-89f5-080d-49f4d83e522f">
    <mxGraphModel dx="669" dy="1413" grid="1" gridSize="10" guides="1" tooltips="1" connect="1" arrows="1" fold="1" page="1" pageScale="1.5" pageWidth="1169" pageHeight="827" background="#ffffff" math="0" shadow="0">
      <root>
        <mxCell id="0" />
        <mxCell id="1" parent="0" />
        <mxCell id="0-Hnq-u8Xx0a8E54Keop-82" style="edgeStyle=orthogonalEdgeStyle;rounded=0;orthogonalLoop=1;jettySize=auto;html=1;entryX=0.5;entryY=0;entryDx=0;entryDy=0;" edge="1" parent="1" source="0-Hnq-u8Xx0a8E54Keop-56" target="0-Hnq-u8Xx0a8E54Keop-81">
          <mxGeometry relative="1" as="geometry" />
        </mxCell>
        <mxCell id="0-Hnq-u8Xx0a8E54Keop-56" value="INICIO" style="ellipse;whiteSpace=wrap;html=1;" vertex="1" parent="1">
          <mxGeometry x="910" y="50" width="120" height="80" as="geometry" />
        </mxCell>
        <mxCell id="0-Hnq-u8Xx0a8E54Keop-72" style="edgeStyle=orthogonalEdgeStyle;rounded=0;orthogonalLoop=1;jettySize=auto;html=1;exitX=0.5;exitY=1;exitDx=0;exitDy=0;entryX=0.5;entryY=0;entryDx=0;entryDy=0;" edge="1" parent="1" source="0-Hnq-u8Xx0a8E54Keop-57" target="0-Hnq-u8Xx0a8E54Keop-71">
          <mxGeometry relative="1" as="geometry" />
        </mxCell>
        <mxCell id="0-Hnq-u8Xx0a8E54Keop-57" value="MENU" style="rounded=0;whiteSpace=wrap;html=1;" vertex="1" parent="1">
          <mxGeometry x="910" y="340" width="120" height="60" as="geometry" />
        </mxCell>
        <mxCell id="0-Hnq-u8Xx0a8E54Keop-77" style="edgeStyle=orthogonalEdgeStyle;rounded=0;orthogonalLoop=1;jettySize=auto;html=1;exitX=0;exitY=0.5;exitDx=0;exitDy=0;entryX=0.5;entryY=0;entryDx=0;entryDy=0;" edge="1" parent="1" source="0-Hnq-u8Xx0a8E54Keop-71" target="0-Hnq-u8Xx0a8E54Keop-73">
          <mxGeometry relative="1" as="geometry" />
        </mxCell>
        <mxCell id="0-Hnq-u8Xx0a8E54Keop-78" style="edgeStyle=orthogonalEdgeStyle;rounded=0;orthogonalLoop=1;jettySize=auto;html=1;exitX=0.25;exitY=1;exitDx=0;exitDy=0;" edge="1" parent="1" source="0-Hnq-u8Xx0a8E54Keop-71" target="0-Hnq-u8Xx0a8E54Keop-74">
          <mxGeometry relative="1" as="geometry" />
        </mxCell>
        <mxCell id="0-Hnq-u8Xx0a8E54Keop-79" style="edgeStyle=orthogonalEdgeStyle;rounded=0;orthogonalLoop=1;jettySize=auto;html=1;exitX=0.75;exitY=1;exitDx=0;exitDy=0;entryX=0.5;entryY=0;entryDx=0;entryDy=0;" edge="1" parent="1" source="0-Hnq-u8Xx0a8E54Keop-71" target="0-Hnq-u8Xx0a8E54Keop-75">
          <mxGeometry relative="1" as="geometry" />
        </mxCell>
        <mxCell id="0-Hnq-u8Xx0a8E54Keop-80" style="edgeStyle=orthogonalEdgeStyle;rounded=0;orthogonalLoop=1;jettySize=auto;html=1;entryX=0.5;entryY=0;entryDx=0;entryDy=0;" edge="1" parent="1" source="0-Hnq-u8Xx0a8E54Keop-71" target="0-Hnq-u8Xx0a8E54Keop-76">
          <mxGeometry relative="1" as="geometry" />
        </mxCell>
        <mxCell id="0-Hnq-u8Xx0a8E54Keop-71" value="SWITCH CASE" style="rounded=0;whiteSpace=wrap;html=1;" vertex="1" parent="1">
          <mxGeometry x="910" y="460" width="120" height="60" as="geometry" />
        </mxCell>
        <mxCell id="0-Hnq-u8Xx0a8E54Keop-90" style="edgeStyle=orthogonalEdgeStyle;rounded=0;orthogonalLoop=1;jettySize=auto;html=1;exitX=0.5;exitY=1;exitDx=0;exitDy=0;entryX=0.5;entryY=0;entryDx=0;entryDy=0;" edge="1" parent="1" source="0-Hnq-u8Xx0a8E54Keop-73" target="0-Hnq-u8Xx0a8E54Keop-84">
          <mxGeometry relative="1" as="geometry" />
        </mxCell>
        <mxCell id="0-Hnq-u8Xx0a8E54Keop-73" value="CASE 1" style="rounded=0;whiteSpace=wrap;html=1;" vertex="1" parent="1">
          <mxGeometry x="651.5" y="610" width="120" height="60" as="geometry" />
        </mxCell>
        <mxCell id="0-Hnq-u8Xx0a8E54Keop-91" style="edgeStyle=orthogonalEdgeStyle;rounded=0;orthogonalLoop=1;jettySize=auto;html=1;entryX=0.5;entryY=0;entryDx=0;entryDy=0;" edge="1" parent="1" source="0-Hnq-u8Xx0a8E54Keop-74" target="0-Hnq-u8Xx0a8E54Keop-85">
          <mxGeometry relative="1" as="geometry" />
        </mxCell>
        <mxCell id="0-Hnq-u8Xx0a8E54Keop-74" value="CASE 2" style="rounded=0;whiteSpace=wrap;html=1;" vertex="1" parent="1">
          <mxGeometry x="818.5" y="610" width="120" height="60" as="geometry" />
        </mxCell>
        <mxCell id="0-Hnq-u8Xx0a8E54Keop-92" style="edgeStyle=orthogonalEdgeStyle;rounded=0;orthogonalLoop=1;jettySize=auto;html=1;entryX=0.5;entryY=0;entryDx=0;entryDy=0;" edge="1" parent="1" source="0-Hnq-u8Xx0a8E54Keop-75" target="0-Hnq-u8Xx0a8E54Keop-86">
          <mxGeometry relative="1" as="geometry" />
        </mxCell>
        <mxCell id="0-Hnq-u8Xx0a8E54Keop-75" value="CASE 3" style="rounded=0;whiteSpace=wrap;html=1;" vertex="1" parent="1">
          <mxGeometry x="1001.5" y="610" width="120" height="60" as="geometry" />
        </mxCell>
        <mxCell id="0-Hnq-u8Xx0a8E54Keop-89" style="edgeStyle=orthogonalEdgeStyle;rounded=0;orthogonalLoop=1;jettySize=auto;html=1;exitX=0.5;exitY=1;exitDx=0;exitDy=0;entryX=0.5;entryY=0;entryDx=0;entryDy=0;" edge="1" parent="1" source="0-Hnq-u8Xx0a8E54Keop-76" target="0-Hnq-u8Xx0a8E54Keop-88">
          <mxGeometry relative="1" as="geometry" />
        </mxCell>
        <mxCell id="0-Hnq-u8Xx0a8E54Keop-76" value="CASE 4" style="rounded=0;whiteSpace=wrap;html=1;" vertex="1" parent="1">
          <mxGeometry x="1168.5" y="610" width="120" height="60" as="geometry" />
        </mxCell>
        <mxCell id="0-Hnq-u8Xx0a8E54Keop-83" style="edgeStyle=orthogonalEdgeStyle;rounded=0;orthogonalLoop=1;jettySize=auto;html=1;entryX=0.5;entryY=0;entryDx=0;entryDy=0;" edge="1" parent="1" source="0-Hnq-u8Xx0a8E54Keop-81" target="0-Hnq-u8Xx0a8E54Keop-57">
          <mxGeometry relative="1" as="geometry" />
        </mxCell>
        <mxCell id="0-Hnq-u8Xx0a8E54Keop-81" value="&lt;font style=&quot;font-size: 17px&quot;&gt;main();&lt;/font&gt;" style="shape=hexagon;perimeter=hexagonPerimeter2;whiteSpace=wrap;html=1;fixedSize=1;fontStyle=3" vertex="1" parent="1">
          <mxGeometry x="910" y="190" width="120" height="80" as="geometry" />
        </mxCell>
        <mxCell id="0-Hnq-u8Xx0a8E54Keop-97" style="edgeStyle=orthogonalEdgeStyle;rounded=0;orthogonalLoop=1;jettySize=auto;html=1;exitX=0;exitY=0.5;exitDx=0;exitDy=0;entryX=0.5;entryY=0;entryDx=0;entryDy=0;" edge="1" parent="1" source="0-Hnq-u8Xx0a8E54Keop-84" target="0-Hnq-u8Xx0a8E54Keop-93">
          <mxGeometry relative="1" as="geometry" />
        </mxCell>
        <mxCell id="0-Hnq-u8Xx0a8E54Keop-84" value="&lt;font style=&quot;font-size: 17px&quot;&gt;Instruções();&lt;/font&gt;" style="shape=hexagon;perimeter=hexagonPerimeter2;whiteSpace=wrap;html=1;fixedSize=1;fontStyle=3" vertex="1" parent="1">
          <mxGeometry x="651.5" y="720" width="120" height="80" as="geometry" />
        </mxCell>
        <mxCell id="0-Hnq-u8Xx0a8E54Keop-85" value="&lt;font style=&quot;font-size: 17px&quot;&gt;Jogar();&lt;/font&gt;" style="shape=hexagon;perimeter=hexagonPerimeter2;whiteSpace=wrap;html=1;fixedSize=1;fontStyle=3" vertex="1" parent="1">
          <mxGeometry x="818.5" y="720" width="120" height="80" as="geometry" />
        </mxCell>
        <mxCell id="0-Hnq-u8Xx0a8E54Keop-102" style="edgeStyle=orthogonalEdgeStyle;rounded=0;orthogonalLoop=1;jettySize=auto;html=1;exitX=0.5;exitY=1;exitDx=0;exitDy=0;entryX=0.5;entryY=0;entryDx=0;entryDy=0;" edge="1" parent="1" source="0-Hnq-u8Xx0a8E54Keop-86" target="0-Hnq-u8Xx0a8E54Keop-100">
          <mxGeometry relative="1" as="geometry" />
        </mxCell>
        <mxCell id="0-Hnq-u8Xx0a8E54Keop-86" value="&lt;font style=&quot;font-size: 17px&quot;&gt;Créditos();&lt;/font&gt;" style="shape=hexagon;perimeter=hexagonPerimeter2;whiteSpace=wrap;html=1;fixedSize=1;fontStyle=3" vertex="1" parent="1">
          <mxGeometry x="1001.5" y="720" width="120" height="80" as="geometry" />
        </mxCell>
        <mxCell id="0-Hnq-u8Xx0a8E54Keop-88" value="FIM" style="ellipse;whiteSpace=wrap;html=1;" vertex="1" parent="1">
          <mxGeometry x="1168.5" y="720" width="120" height="80" as="geometry" />
        </mxCell>
        <mxCell id="0-Hnq-u8Xx0a8E54Keop-98" style="edgeStyle=orthogonalEdgeStyle;rounded=0;orthogonalLoop=1;jettySize=auto;html=1;exitX=0.5;exitY=1;exitDx=0;exitDy=0;entryX=0.5;entryY=0;entryDx=0;entryDy=0;" edge="1" parent="1" source="0-Hnq-u8Xx0a8E54Keop-93" target="0-Hnq-u8Xx0a8E54Keop-96">
          <mxGeometry relative="1" as="geometry" />
        </mxCell>
        <mxCell id="0-Hnq-u8Xx0a8E54Keop-93" value="&lt;font style=&quot;font-size: 17px&quot;&gt;Texto_Formatado();&lt;/font&gt;" style="shape=hexagon;perimeter=hexagonPerimeter2;whiteSpace=wrap;html=1;fixedSize=1;fontStyle=3" vertex="1" parent="1">
          <mxGeometry x="410" y="840" width="200" height="110" as="geometry" />
        </mxCell>
        <mxCell id="0-Hnq-u8Xx0a8E54Keop-99" style="edgeStyle=orthogonalEdgeStyle;rounded=0;orthogonalLoop=1;jettySize=auto;html=1;entryX=0;entryY=0.5;entryDx=0;entryDy=0;" edge="1" parent="1" source="0-Hnq-u8Xx0a8E54Keop-96" target="0-Hnq-u8Xx0a8E54Keop-57">
          <mxGeometry relative="1" as="geometry">
            <Array as="points">
              <mxPoint x="320" y="1065" />
              <mxPoint x="320" y="370" />
            </Array>
          </mxGeometry>
        </mxCell>
        <mxCell id="0-Hnq-u8Xx0a8E54Keop-96" value="&lt;font style=&quot;font-size: 17px&quot;&gt;Sair();&lt;/font&gt;" style="shape=hexagon;perimeter=hexagonPerimeter2;whiteSpace=wrap;html=1;fixedSize=1;fontStyle=3" vertex="1" parent="1">
          <mxGeometry x="410" y="1010" width="200" height="110" as="geometry" />
        </mxCell>
        <mxCell id="0-Hnq-u8Xx0a8E54Keop-103" style="edgeStyle=orthogonalEdgeStyle;rounded=0;orthogonalLoop=1;jettySize=auto;html=1;exitX=0.5;exitY=1;exitDx=0;exitDy=0;entryX=0.5;entryY=0;entryDx=0;entryDy=0;" edge="1" parent="1" source="0-Hnq-u8Xx0a8E54Keop-100" target="0-Hnq-u8Xx0a8E54Keop-101">
          <mxGeometry relative="1" as="geometry" />
        </mxCell>
        <mxCell id="0-Hnq-u8Xx0a8E54Keop-100" value="&lt;font style=&quot;font-size: 17px&quot;&gt;Texto_Formatado();&lt;/font&gt;" style="shape=hexagon;perimeter=hexagonPerimeter2;whiteSpace=wrap;html=1;fixedSize=1;fontStyle=3" vertex="1" parent="1">
          <mxGeometry x="961.5" y="840" width="200" height="110" as="geometry" />
        </mxCell>
        <mxCell id="0-Hnq-u8Xx0a8E54Keop-104" style="edgeStyle=orthogonalEdgeStyle;rounded=0;orthogonalLoop=1;jettySize=auto;html=1;entryX=1;entryY=0.5;entryDx=0;entryDy=0;" edge="1" parent="1" source="0-Hnq-u8Xx0a8E54Keop-101" target="0-Hnq-u8Xx0a8E54Keop-57">
          <mxGeometry relative="1" as="geometry">
            <Array as="points">
              <mxPoint x="1400" y="1065" />
              <mxPoint x="1400" y="370" />
            </Array>
          </mxGeometry>
        </mxCell>
        <mxCell id="0-Hnq-u8Xx0a8E54Keop-101" value="&lt;font style=&quot;font-size: 17px&quot;&gt;Sair();&lt;/font&gt;" style="shape=hexagon;perimeter=hexagonPerimeter2;whiteSpace=wrap;html=1;fixedSize=1;fontStyle=3" vertex="1" parent="1">
          <mxGeometry x="961.5" y="1010" width="200" height="110" as="geometry" />
        </mxCell>
      </root>
    </mxGraphModel>
  </diagram>
</mxfile>
